# xmcd CD database file
#
# Track frame offsets:
#	150
#	10754
#	20234
#	35475
#	53403
#	63543
#	79163
#	104878
#	124596
#	162923
#	186738
#	204957
#	221311
#	239064
#	263757
#	281502
#	308105
#	339954
#
# Disc length: 4704 seconds
#
# Revision: 0
# Processed by: cddbd v1.5.2PL0 Copyright (c) Steve Scherf et al.
# Submitted via: CDex 1.51
#
DISCID=05125e12
DTITLE=Willie Nelson - The Sound In Your Mind/ Sings Kristoffersson
DYEAR=1998
DGENRE=Country
TTITLE0=That Lucky Old Sun (Just Rolls Around Heaven All Day)
TTITLE1=If You've Got The Money I've Got The Time
TTITLE2=A Penny For Your Thoughts
TTITLE3=The Healing Hands Of Time
TTITLE4=Thanks Again
TTITLE5=I'd Have To Be Crazy
TTITLE6=Amazing Grace
TTITLE7=The Sound In Your Mind
TTITLE8=Medley - Funny How Time Slips Away - Crazy - Night Life
TTITLE9=Me And Bobby McGee
TTITLE10=Help Me Make It Through The Night
TTITLE11=The Pilgrim - Chapter 33
TTITLE12=Why Me
TTITLE13=For The Good Times
TTITLE14=You Show Me Yours (And I'll Show You Mine)
TTITLE15=Loving Her Was Easier (Than Anything I'll Ever Do Again)
TTITLE16=Sunday Mornin' Comin' Down
TTITLE17=Please Don't Tell Me How The Story Ends
EXTD=YEAR: 1998
EXTT0=
EXTT1=
EXTT2=
EXTT3=
EXTT4=
EXTT5=
EXTT6=
EXTT7=
EXTT8=
EXTT9=
EXTT10=
EXTT11=
EXTT12=
EXTT13=
EXTT14=
EXTT15=
EXTT16=
EXTT17=
PLAYORDER=
